<?xml version="1.0" encoding="UTF-8"?>
<svg width="20px" height="20px" viewBox="0 0 20 20" version="1.1" xmlns="http://www.w3.org/2000/svg" xmlns:xlink="http://www.w3.org/1999/xlink">
    <!-- Generator: Sketch 61.2 (89653) - https://sketch.com -->
    <title>🎨 Style</title>
    <desc>Created with Sketch.</desc>
    <g id="💎-Icons" stroke="none" stroke-width="1" fill="none" fill-rule="evenodd">
        <g id="Icons/call/call_outline" transform="translate(-2.000000, -2.000000)" fill="#030F1C">
            <path d="M4,4 L4,5.22168741 L4,5.22530211 L4,5.25 C4,12.6815167 9.52762011,18.9274529 16.8295401,19.8762261 L16.8377032,19.8773209 C17.4278661,19.9589518 18.0552913,20 18.7200001,20 L20,20 L20,15.8804604 L15.7,16.5971271 L15.7,19.0373501 L14.389923,18.610065 C10.1366196,17.2228389 6.77716351,13.863383 5.3899354,9.61007729 L4.96264985,8.3 L7.40287291,8.3 L8.11953958,4 L4,4 Z M2,5.24892842 L2,5.23148756 L2,5.22168741 L2,3.9 C2,2.85065898 2.85065898,2 3.9,2 L8.23758562,2 C9.28692665,2 10.1375856,2.85065898 10.1375856,3.9 C10.1375856,4.00465363 10.128939,4.10912837 10.1117341,4.21235808 L9.09712709,10.3 L7.805797,10.3 C9.00599399,12.8962901 11.1037114,14.9940076 13.7,16.1942036 L13.7,14.9028729 L19.7876419,13.8882659 C19.8908716,13.871061 19.9953464,13.8624144 20.1,13.8624144 C21.149341,13.8624144 22,14.7130734 22,15.7624144 L22,20.1 C22,21.149341 21.149341,22 20.1,22 L18.7200001,22 C17.9672745,22 17.2498517,21.9531618 16.5677528,21.8590226 C8.27438799,20.7793668 2,13.688235 2,5.24892842 Z" id="🎨-Style"></path>
        </g>
    </g>
</svg>