<?xml version="1.0" encoding="UTF-8"?>
<svg width="20px" height="20px" viewBox="0 0 20 20" version="1.1" xmlns="http://www.w3.org/2000/svg" xmlns:xlink="http://www.w3.org/1999/xlink">
    <!-- Generator: Sketch 61.2 (89653) - https://sketch.com -->
    <title>🎨 Style</title>
    <desc>Created with Sketch.</desc>
    <g id="💎-Icons" stroke="none" stroke-width="1" fill="none" fill-rule="evenodd">
        <g id="Icons/call/call_outline-copy" transform="translate(-2.000000, -2.000000)" fill="#030F1C">
            <path d="M17.2229873,21.8532111 C8.63380997,20.7371785 2,13.3932939 2,4.5 C2,4.48953172 2,4.47903436 2,4.46854157 L2,3 C2,2.44771525 2.44771525,2 3,2 L7.81953958,2 C8.37182433,2 8.81953958,2.44771525 8.81953958,3 C8.81953958,3.05508086 8.81498874,3.11006756 8.8059335,3.16439899 L7.83333333,9 L5.71182972,9 C7.1431794,13.3885844 10.6114193,16.8568235 15,18.2881707 L15,16.1666667 L20.835601,15.1940665 C20.8899324,15.1850113 20.9449191,15.1804604 21,15.1804604 C21.5522847,15.1804604 22,15.6281757 22,16.1804604 L22,21 C22,21.5522847 21.5522847,22 21,22 L19.4666668,22 C18.6783695,22 17.9304764,21.9510704 17.2229873,21.8532111 L17.2229873,21.8532111 Z" id="🎨-Style"></path>
        </g>
    </g>
</svg>