<?xml version="1.0" encoding="UTF-8"?>
<svg width="21px" height="20px" viewBox="0 0 21 20" version="1.1" xmlns="http://www.w3.org/2000/svg" xmlns:xlink="http://www.w3.org/1999/xlink">
    <!-- Generator: Sketch 61.2 (89653) - https://sketch.com -->
    <title>🎨 Style</title>
    <desc>Created with Sketch.</desc>
    <g id="💎-Icons" stroke="none" stroke-width="1" fill="none" fill-rule="evenodd">
        <g id="Icons/cart/cart_fill" transform="translate(-1.000000, -2.000000)" fill="#030F1C">
            <path d="M7,16 C8.65685425,16 10,17.3431458 10,19 C10,20.6568542 8.65685425,22 7,22 C5.34314575,22 4,20.6568542 4,19 C4,17.3431458 5.34314575,16 7,16 Z M17,16 C18.6568542,16 20,17.3431458 20,19 C20,20.6568542 18.6568542,22 17,22 C15.3431458,22 14,20.6568542 14,19 C14,17.3431458 15.3431458,16 17,16 Z M5.83431411,2.01764225 L6.64462449,5.99964225 L22,6 L20.1,15 L5,15 L3,6 L4.60262449,5.99964225 L4.20025864,4.01764225 L1.99462449,4.01764225 L1.99462449,2.01764225 L5.83431411,2.01764225 Z" id="🎨-Style"></path>
        </g>
    </g>
</svg>