<?xml version="1.0" encoding="UTF-8"?>
<svg width="21px" height="20px" viewBox="0 0 21 20" version="1.1" xmlns="http://www.w3.org/2000/svg" xmlns:xlink="http://www.w3.org/1999/xlink">
    <!-- Generator: Sketch 61.2 (89653) - https://sketch.com -->
    <title>🎨 Style</title>
    <desc>Created with Sketch.</desc>
    <g id="💎-Icons" stroke="none" stroke-width="1" fill="none" fill-rule="evenodd">
        <g id="Icons/cart/cart_outline" transform="translate(-1.000000, -2.000000)" fill="#030F1C">
            <path d="M17,20 C17.5522847,20 18,19.5522847 18,19 C18,18.4477153 17.5522847,18 17,18 C16.4477153,18 16,18.4477153 16,19 C16,19.5522847 16.4477153,20 17,20 Z M17,22 C15.3431458,22 14,20.6568542 14,19 C14,17.3431458 15.3431458,16 17,16 C18.6568542,16 20,17.3431458 20,19 C20,20.6568542 18.6568542,22 17,22 Z M7,20 C7.55228475,20 8,19.5522847 8,19 C8,18.4477153 7.55228475,18 7,18 C6.44771525,18 6,18.4477153 6,19 C6,19.5522847 6.44771525,20 7,20 Z M7,22 C5.34314575,22 4,20.6568542 4,19 C4,17.3431458 5.34314575,16 7,16 C8.65685425,16 10,17.3431458 10,19 C10,20.6568542 8.65685425,22 7,22 Z M5.51649462,8.10468133 L6.60434321,13 L18.4781401,13 L19.5336957,8 L6.03099916,8 L5.51649462,8.10468133 Z M4.60359005,6 L4.20025864,4.01764225 L1.99462449,4.01764225 L1.99462449,2.01764225 L5.83431411,2.01764225 L6.64456644,6 L22,6 L20.1,15 L5,15 L3,6 L4.60359005,6 Z" id="🎨-Style"></path>
        </g>
    </g>
</svg>