<?xml version="1.0" encoding="UTF-8"?>
<svg width="20px" height="20px" viewBox="0 0 20 20" version="1.1" xmlns="http://www.w3.org/2000/svg" xmlns:xlink="http://www.w3.org/1999/xlink">
    <!-- Generator: Sketch 61.2 (89653) - https://sketch.com -->
    <title>🎨 Style</title>
    <desc>Created with Sketch.</desc>
    <g id="💎-Icons" stroke="none" stroke-width="1" fill="none" fill-rule="evenodd">
        <g id="Icons/chart/chart_outline" transform="translate(-2.000000, -2.000000)" fill="#030F1C">
            <path d="M4,16 L4,20 L6,20 L6,16 L4,16 Z M2,14 L8,14 L8,22 L2,22 L2,14 Z M11,4 L11,20 L13,20 L13,4 L11,4 Z M9,2 L15,2 L15,22 L9,22 L9,2 Z M18,10 L18,20 L20,20 L20,10 L18,10 Z M16,8 L22,8 L22,22 L16,22 L16,8 Z" id="🎨-Style"></path>
        </g>
    </g>
</svg>