<?xml version="1.0" encoding="UTF-8"?>
<svg width="20px" height="20px" viewBox="0 0 20 20" version="1.1" xmlns="http://www.w3.org/2000/svg" xmlns:xlink="http://www.w3.org/1999/xlink">
    <!-- Generator: Sketch 61.2 (89653) - https://sketch.com -->
    <title>🎨 Style</title>
    <desc>Created with Sketch.</desc>
    <g id="💎-Icons" stroke="none" stroke-width="1" fill="none" fill-rule="evenodd">
        <g id="Icons/edit/edit_outline" transform="translate(-2.000000, -2.000000)" fill="#030F1C">
            <path d="M12.548097,2.48438854 L15.0229708,4.95926227 L16.7907377,3.19149532 C17.5717863,2.41044674 18.8381163,2.41044674 19.6191649,3.19149532 L21.0333784,4.60570888 C21.814427,5.38675747 21.814427,6.65308742 21.0333784,7.43413601 L6.89124279,21.5762716 L2.6486021,21.5762716 L2.6486021,17.3336309 L13.6087572,6.37347584 L12.548097,5.31281566 L8.65900974,9.20190296 L7.24479618,7.7876894 L12.548097,2.48438854 Z M8.65900974,16.9800776 L16.4371843,9.20190296 L15.0229708,7.7876894 L7.24479618,15.565864 L8.65900974,16.9800776 L8.65900974,16.9800776 Z M7.24479618,18.3942911 L5.83058262,16.9800776 L4.6486021,18.1620581 L4.6486021,19.5762716 L6.06281566,19.5762716 L7.24479618,18.3942911 L7.24479618,18.3942911 Z M17.8513979,7.7876894 L19.6191649,6.01992245 L18.2049513,4.60570888 L16.4371843,6.37347584 L17.8513979,7.7876894 L17.8513979,7.7876894 Z" id="🎨-Style"></path>
        </g>
    </g>
</svg>