<?xml version="1.0" encoding="UTF-8"?>
<svg width="20px" height="20px" viewBox="0 0 20 20" version="1.1" xmlns="http://www.w3.org/2000/svg" xmlns:xlink="http://www.w3.org/1999/xlink">
    <!-- Generator: Sketch 61.2 (89653) - https://sketch.com -->
    <title>🎨 Style</title>
    <desc>Created with Sketch.</desc>
    <g id="💎-Icons" stroke="none" stroke-width="1" fill="none" fill-rule="evenodd">
        <g id="Icons/error/error_outline" transform="translate(-2.000000, -2.000000)" fill="#030F1C">
            <path d="M12,4 C7.581722,4 4,7.581722 4,12 C4,16.418278 7.581722,20 12,20 C16.418278,20 20,16.418278 20,12 C20,7.581722 16.418278,4 12,4 Z M12,2 C17.5228475,2 22,6.4771525 22,12 C22,17.5228475 17.5228475,22 12,22 C6.4771525,22 2,17.5228475 2,12 C2,6.4771525 6.4771525,2 12,2 Z M12,13.4142136 L9.17157288,16.2426407 L7.75735931,14.8284271 L10.5857864,12 L7.75735931,9.17157288 L9.17157288,7.75735931 L12,10.5857864 L14.8284271,7.75735931 L16.2426407,9.17157288 L13.4142136,12 L16.2426407,14.8284271 L14.8284271,16.2426407 L12,13.4142136 Z" id="🎨-Style"></path>
        </g>
    </g>
</svg>