<?xml version="1.0" encoding="UTF-8"?>
<svg width="20px" height="21px" viewBox="0 0 20 21" version="1.1" xmlns="http://www.w3.org/2000/svg" xmlns:xlink="http://www.w3.org/1999/xlink">
    <!-- Generator: Sketch 61.2 (89653) - https://sketch.com -->
    <title>🎨 Style</title>
    <desc>Created with Sketch.</desc>
    <g id="💎-Icons" stroke="none" stroke-width="1" fill="none" fill-rule="evenodd">
        <g id="Icons/heart/heart_outline" transform="translate(-2.000000, -2.000000)" fill="#030F1C">
            <path d="M16.0066291,4 C13.8940061,4 12.1636787,5.70706684 12.0146165,7.87076138 C11.8655542,5.70706684 10.1352268,4 8.02260383,4 C5.84040338,4 4.06609433,5.82136004 4.02105169,8.08598094 L4.02017466,8.09744977 C3.73882603,11.8108238 6.40016779,15.7797388 12.0042,20.004195 C17.6221208,15.7797388 20.2904069,11.8108238 20.0090583,8.09744977 L20.0081813,8.08598094 C19.9631386,5.82136004 18.1888296,4 16.0066291,4 Z M13.206205,21.6026893 L12.0027111,22.5076695 L10.8002945,21.6012585 C4.72730533,17.0232911 1.70007241,12.5225913 2.02289,7.98724052 C2.11908121,4.67589499 4.75468117,2 8.02260383,2 C9.55602663,2 10.9542135,2.59059195 12.0146165,3.56273942 C13.0750195,2.59059195 14.4732063,2 16.0066291,2 C19.2745006,2 21.9100691,4.6758111 22.0063384,7.98708479 C22.3299199,12.5230865 19.2947672,17.0243293 13.206205,21.6026893 Z" id="🎨-Style"></path>
        </g>
    </g>
</svg>