<?xml version="1.0" encoding="UTF-8"?>
<svg width="20px" height="4px" viewBox="0 0 20 4" version="1.1" xmlns="http://www.w3.org/2000/svg" xmlns:xlink="http://www.w3.org/1999/xlink">
    <!-- Generator: Sketch 61.2 (89653) - https://sketch.com -->
    <title>🎨 Style</title>
    <desc>Created with Sketch.</desc>
    <g id="💎-Icons" stroke="none" stroke-width="1" fill="none" fill-rule="evenodd">
        <g id="Icons/menu_overflow_horizontal" transform="translate(-2.000000, -10.000000)" fill="#030F1C">
            <path d="M4,14 C2.8954305,14 2,13.1045695 2,12 C2,10.8954305 2.8954305,10 4,10 C5.1045695,10 6,10.8954305 6,12 C6,13.1045695 5.1045695,14 4,14 Z M12,14 C10.8954305,14 10,13.1045695 10,12 C10,10.8954305 10.8954305,10 12,10 C13.1045695,10 14,10.8954305 14,12 C14,13.1045695 13.1045695,14 12,14 Z M20,14 C18.8954305,14 18,13.1045695 18,12 C18,10.8954305 18.8954305,10 20,10 C21.1045695,10 22,10.8954305 22,12 C22,13.1045695 21.1045695,14 20,14 Z" id="🎨-Style"></path>
        </g>
    </g>
</svg>