<?xml version="1.0" encoding="UTF-8"?>
<svg width="20px" height="16px" viewBox="0 0 20 16" version="1.1" xmlns="http://www.w3.org/2000/svg" xmlns:xlink="http://www.w3.org/1999/xlink">
    <!-- Generator: Sketch 61.2 (89653) - https://sketch.com -->
    <title>🎨 Style</title>
    <desc>Created with Sketch.</desc>
    <g id="💎-Icons" stroke="none" stroke-width="1" fill="none" fill-rule="evenodd">
        <g id="Icons/message/message_outline" transform="translate(-2.000000, -4.000000)" fill="#030F1C">
            <path d="M18.0758313,15.1331863 L18.7202122,14.4480995 C19.5639963,13.551013 20,12.537076 20,11.5 C20,8.60786438 16.5228475,6 12,6 C7.4771525,6 4,8.60786438 4,11.5 C4,14.3921356 7.4771525,17 12,17 C13.1196133,17 14.2039979,16.8381991 15.2060375,16.5297553 L15.7387547,16.3657765 L18.3102648,17.0086541 L18.0758313,15.1331863 Z M20.6568542,19.6568542 L15.794425,18.4412469 C14.6243631,18.8014106 13.3431036,19 12,19 C6.4771525,19 2,15.6421356 2,11.5 C2,7.35786438 6.4771525,4 12,4 C17.5228475,4 22,7.35786438 22,11.5 C22,13.1077862 21.3254567,14.5974114 20.1770437,15.8183702 L20.6568542,19.6568542 Z" id="🎨-Style"></path>
        </g>
    </g>
</svg>