<?xml version="1.0" encoding="UTF-8"?>
<svg width="20px" height="20px" viewBox="0 0 20 20" version="1.1" xmlns="http://www.w3.org/2000/svg" xmlns:xlink="http://www.w3.org/1999/xlink">
    <!-- Generator: Sketch 61.2 (89653) - https://sketch.com -->
    <title>🎨 Style</title>
    <desc>Created with Sketch.</desc>
    <g id="💎-Icons" stroke="none" stroke-width="1" fill="none" fill-rule="evenodd">
        <g id="Icons/search" transform="translate(-2.000000, -2.000000)" fill="#030F1C">
            <path d="M9.5,2 C13.6421356,2 17,5.35786438 17,9.5 C17,11.2106044 16.4273178,12.7874516 15.4632192,14.0492761 L21.8982272,20.4840136 L20.4840136,21.8982272 L14.0492761,15.4632192 C12.7874516,16.4273178 11.2106044,17 9.5,17 C5.35786438,17 2,13.6421356 2,9.5 C2,5.35786438 5.35786438,2 9.5,2 Z M9.5,4 C6.46243388,4 4,6.46243388 4,9.5 C4,12.5375661 6.46243388,15 9.5,15 C12.5375661,15 15,12.5375661 15,9.5 C15,6.46243388 12.5375661,4 9.5,4 Z" id="🎨-Style"></path>
        </g>
    </g>
</svg>