<?xml version="1.0" encoding="UTF-8"?>
<svg width="20px" height="18px" viewBox="0 0 20 18" version="1.1" xmlns="http://www.w3.org/2000/svg" xmlns:xlink="http://www.w3.org/1999/xlink">
    <!-- Generator: Sketch 61.2 (89653) - https://sketch.com -->
    <title>🎨 Style</title>
    <desc>Created with Sketch.</desc>
    <g id="💎-Icons" stroke="none" stroke-width="1" fill="none" fill-rule="evenodd">
        <g id="Icons/settings/settings_outline" transform="translate(-2.000000, -3.000000)" fill="#030F1C">
            <path d="M17,3.33974596 L22,12 L17,20.660254 L7,20.660254 L2,12 L7,3.33974596 L17,3.33974596 Z M15.8452995,5.33974596 L8.15470054,5.33974596 L4.30940108,12 L8.15470054,18.660254 L15.8452995,18.660254 L19.6905989,12 L15.8452995,5.33974596 Z M12,8 C14.209139,8 16,9.790861 16,12 C16,14.209139 14.209139,16 12,16 C9.790861,16 8,14.209139 8,12 C8,9.790861 9.790861,8 12,8 Z M12,10 C10.8954305,10 10,10.8954305 10,12 C10,13.1045695 10.8954305,14 12,14 C13.1045695,14 14,13.1045695 14,12 C14,10.8954305 13.1045695,10 12,10 Z" id="🎨-Style"></path>
        </g>
    </g>
</svg>