<?xml version="1.0" encoding="UTF-8"?>
<svg width="20px" height="20px" viewBox="0 0 20 20" version="1.1" xmlns="http://www.w3.org/2000/svg" xmlns:xlink="http://www.w3.org/1999/xlink">
    <!-- Generator: Sketch 61.2 (89653) - https://sketch.com -->
    <title>🎨 Style</title>
    <desc>Created with Sketch.</desc>
    <g id="💎-Icons" stroke="none" stroke-width="1" fill="none" fill-rule="evenodd">
        <g id="Icons/user/user_outline" transform="translate(-2.000000, -2.000000)" fill="#030F1C">
            <path d="M12,15 C15.7037037,15 19.037037,15.6666667 22,17 L22,22 L2,22 L2,17 C4.96296296,15.6666667 8.2962963,15 12,15 Z M12,17 C9.06112229,17 6.39810386,17.4484959 4,18.3401192 L4,20 L20,20 L20,18.3401192 C17.6018961,17.4484959 14.9388777,17 12,17 Z M12,2 C14.7614237,2 17,4.23857625 17,7 C17,9.76142375 14.7614237,12 12,12 C9.23857625,12 7,9.76142375 7,7 C7,4.23857625 9.23857625,2 12,2 Z M12,4 C10.3431458,4 9,5.34314575 9,7 C9,8.65685425 10.3431458,10 12,10 C13.6568542,10 15,8.65685425 15,7 C15,5.34314575 13.6568542,4 12,4 Z" id="🎨-Style"></path>
        </g>
    </g>
</svg>