<?xml version="1.0" encoding="UTF-8"?>
<svg width="20px" height="14px" viewBox="0 0 20 14" version="1.1" xmlns="http://www.w3.org/2000/svg" xmlns:xlink="http://www.w3.org/1999/xlink">
    <!-- Generator: Sketch 61.2 (89653) - https://sketch.com -->
    <title>🎨 Style</title>
    <desc>Created with Sketch.</desc>
    <g id="💎-Icons" stroke="none" stroke-width="1" fill="none" fill-rule="evenodd">
        <g id="Icons/list" transform="translate(-2.000000, -5.000000)" fill="#030F1C">
            <path d="M22,5 L22,7 L6,7 L6,5 L22,5 Z M22,11 L22,13 L6,13 L6,11 L22,11 Z M22,17 L22,19 L6,19 L6,17 L22,17 Z M4,5 L4,7 L2,7 L2,5 L4,5 Z M4,11 L4,13 L2,13 L2,11 L4,11 Z M4,17 L4,19 L2,19 L2,17 L4,17 Z" id="🎨-Style"></path>
        </g>
    </g>
</svg>